# xmcd
#
# Track frame offsets:
#	150
#	14567
#	32325
#	55118
#	73988
#	98186
#	116282
#	137627
#	152113
#	170114
#
# Disc length: 2604 seconds
#
# Revision: 1
# Processed by: cddbd v1.5.2PL0 Copyright (c) Steve Scherf et al.
# Submitted via: audiograbber 1.83.01
#
DISCID=840a2a0a
DTITLE=Cary Hudson Electric Trio - Live in Wredenhagen
DYEAR=2002
DGENRE=
TTITLE0=Bend with the wind
TTITLE1=Mad, bad and dangerous
TTITLE2=8 ball blues
TTITLE3=Black dog
TTITLE4=Butterfly
TTITLE5=Poppa
TTITLE6=Go 'way devil
TTITLE7=Wink
TTITLE8=Jesus on the mainline
TTITLE9=Mississippi queen
EXTD=
EXTT0=
EXTT1=
EXTT2=
EXTT3=
EXTT4=
EXTT5=
EXTT6=
EXTT7=
EXTT8=
EXTT9=
PLAYORDER=
